<svg xmlns="http://www.w3.org/2000/svg" version="1.1" xmlns:xlink="http://www.w3.org/1999/xlink" xmlns:svgjs="http://svgjs.dev/svgjs" width="100%" height="100%" viewBox="0 0 1000 600"><rect width="1000" height="600" x="0" y="0" fill="#25374b"/><g><circle r="166.66666666666666" cx="311.2786204020182" cy="333.5008545532419" fill="#6bd1e8" transform="matrix(0.864382117672879,0,0,0.864382117672879,0,11.72781513904927)"/><path d="M319.96205241316727 408.5008710516664L302.595218242313 408.5008710516664L302.595218242313 258.5008710516664L319.96205241316727 258.5008710516664L319.96205241316727 408.5008710516664Z " fill="#fafafa" transform="matrix(0.864382117672879,0,0,0.864382117672879,0,11.72781513904927)"/><path d="M574.4373312823474 372.15453513616L561.2786357019115 372.15453513616L561.2786357019115 258.5008710516664L574.4373312823474 258.5008710516664L574.4373312823474 372.15453513616ZM612.7483251858039 372.15453513616L600.0922186726763 372.15453513616L600.0922186726763 289.91268775843594L612.7483251858039 289.91268775843594L612.7483251858039 295.66961707487667Q615.398340267975 294.0247801273222 619.3276729760217 292.3799431797677Q623.2798506416734 290.7351062322132 627.8031522474483 289.50147852154737Q632.3264538532231 288.26785081088155 636.4385462221094 288.26785081088155L636.4385462221094 288.26785081088155Q644.6627309598817 288.26785081088155 649.6886216329649 290.23251716490495Q654.691667348443 292.22002847653323 657.8214265403176 296.65195025188837L657.8214265403176 296.65195025188837Q661.1111004354266 294.8471986010994 665.8856965748555 292.882532247076Q670.6602927142845 290.89502093544775 676.165927497071 289.59285835196704Q681.6715622798575 288.26785081088155 686.9487474865949 288.26785081088155L686.9487474865949 288.26785081088155Q695.3328469276017 288.26785081088155 700.7471018799686 290.4152768257443Q706.1842017899403 292.5398578830021 709.222581151395 297.31445402243116Q712.2609605128499 302.0890501618601 713.4945882235157 309.74211095950943Q714.7282159341817 317.3723267995539 714.7282159341817 328.56635602596634L714.7282159341817 328.56635602596634L714.7282159341817 372.15453513616L702.072109421054 372.15453513616L702.072109421054 329.0689450932746Q702.072109421054 318.3775049341705 700.8384817103882 311.95807184718706Q699.6048539997224 305.5386387602035 695.9953506981445 302.6601741019832Q692.3630024389616 299.7817094437629 684.9612361749665 299.7817094437629L684.9612361749665 299.7817094437629Q680.6892291028458 299.7817094437629 676.3258422003055 300.6955077479598Q671.9624552977651 301.58646109455185 668.2615721657676 302.9800035084521Q664.56068903377 304.3963908799574 662.2761932732776 305.698553463438L662.2761932732776 305.698553463438Q663.4184411535238 309.97056053555866 663.8296503904124 316.3214587497274Q664.240859627301 322.64951200629116 664.240859627301 329.3887744997435L664.240859627301 329.3887744997435L664.240859627301 372.15453513616L651.5847531141735 372.15453513616L651.5847531141735 329.7086039062125Q651.5847531141735 318.5374196374049 650.4196602763225 312.02660672000184Q649.2774123960762 305.5386387602035 645.5765292640787 302.6601741019832Q641.8756461320811 299.7817094437629 634.473879868086 299.7817094437629L634.473879868086 299.7817094437629Q630.3617874991997 299.7817094437629 626.1583152998938 300.6955077479598Q621.9776880581928 301.58646109455185 618.5052545022445 302.9800035084521Q615.0556659039011 304.3963908799574 612.7483251858039 305.698553463438L612.7483251858039 305.698553463438L612.7483251858039 372.15453513616ZM750.2749699674424 408.5008626855931L737.5960184967099 408.5008626855931L737.5960184967099 289.91268775843594L750.2749699674424 289.91268775843594L750.2749699674424 295.8295317781111Q752.9021400920086 294.1846948305566 756.9228526304751 292.47132301018735Q760.9664101265465 290.7351062322132 765.5582466051361 289.50147852154737Q770.1729280413306 288.26785081088155 774.4449351134513 288.26785081088155L774.4449351134513 288.26785081088155Q784.9764605693209 288.26785081088155 791.5558083595388 292.6312377134219Q798.1351561497568 296.99462461596227 801.3334502144461 306.2011425307463Q804.5545892367403 315.4076604455305 804.5545892367403 330.0512782702863L804.5545892367403 330.0512782702863Q804.5545892367403 346.1569733817572 800.8537061047426 355.79754549103495Q797.1528229727451 365.4152726427077 789.1570878110218 369.5958998844086Q781.1841976069037 373.7993720837145 768.5280910937761 373.7993720837145L768.5280910937761 373.7993720837145Q763.4336655478783 373.7993720837145 758.2478601715605 373.1368683131717Q753.0620547952431 372.4743645426289 750.2749699674424 371.99462043292556L750.2749699674424 371.99462043292556L750.2749699674424 408.5008626855931ZM767.8655873232334 362.60534285730205L767.8655873232334 362.60534285730205Q776.7522758315486 362.60534285730205 781.938081207866 359.31566896219306Q787.1010416265789 356.0259950670842 789.2484676414416 348.8755233367432Q791.3958936563043 341.7250516064022 791.3958936563043 330.0512782702863L791.3958936563043 330.0512782702863Q791.3958936563043 313.442994091507 786.461382813641 306.612351767635Q781.5268719709775 299.7817094437629 772.6401834626623 299.7817094437629L772.6401834626623 299.7817094437629Q768.6880057970105 299.7817094437629 764.4845335977046 300.7640426207746Q760.3039063560037 301.7463757977863 756.5116433935865 303.16276316929157Q752.742225388774 304.55630558319183 750.2749699674424 306.0412278275119L750.2749699674424 306.0412278275119L750.2749699674424 360.96050590974755Q752.9021400920086 361.30318027382145 757.9965656379064 361.96568404436425Q763.0909911838044 362.60534285730205 767.8655873232334 362.60534285730205ZM856.0242787206324 373.7993720837145L856.0242787206324 373.7993720837145Q842.2030793696539 373.7993720837145 834.5728635296094 369.0247759442856Q826.9198027319602 364.25017980485654 823.8814233705053 354.563917780369Q820.8201990514457 344.8548107982766 820.8201990514457 330.0512782702863L820.8201990514457 330.0512782702863Q820.8201990514457 315.91024951283873 824.2012527769742 306.68088664044967Q827.582306502503 297.4743687256656 835.303902172967 292.882532247076Q843.0254978434311 288.26785081088155 856.0242787206324 288.26785081088155L856.0242787206324 288.26785081088155Q869.1829743010684 288.26785081088155 876.9274149291374 292.882532247076Q884.6490105996014 297.4743687256656 888.0300643251302 306.68088664044967Q891.388273093054 315.91024951283873 891.388273093054 330.0512782702863L891.388273093054 330.0512782702863Q891.388273093054 344.8548107982766 888.3498937315991 354.563917780369Q885.3115143701442 364.25017980485654 877.658453572495 369.0247759442856Q870.0053927748456 373.7993720837145 856.0242787206324 373.7993720837145ZM856.0242787206324 362.7881025181415L856.0242787206324 362.7881025181415Q865.5734709994905 362.7881025181415 870.3480671389194 359.40704879261284Q875.0998183207435 356.0259950670842 876.6761203954833 348.8069884639284Q878.229577512618 341.5651369031676 878.229577512618 330.0512782702863L878.229577512618 330.0512782702863Q878.229577512618 318.6973343406394 876.2649111585946 311.95807184718706Q874.2773998469662 305.2188093537346 869.5256486651422 302.24896486509465Q864.7510525257131 299.27912037645456 856.0242787206324 299.27912037645456L856.0242787206324 299.27912037645456Q847.4802645763913 299.27912037645456 842.6142886065425 302.24896486509465Q837.7711575942988 305.2188093537346 835.8064912402754 311.95807184718706Q833.8189799286471 318.6973343406394 833.8189799286471 330.0512782702863L833.8189799286471 330.0512782702863Q833.8189799286471 341.5651369031676 835.3952820033868 348.8069884639284Q836.9487391205215 356.0259950670842 841.7233352599504 359.40704879261284Q846.4979313993795 362.7881025181415 856.0242787206324 362.7881025181415ZM924.1250973409091 372.15453513616L911.4689908277816 372.15453513616L911.4689908277816 289.91268775843594L924.1250973409091 289.91268775843594L924.1250973409091 300.92395732400905Q927.2548565327835 298.7993762667512 932.0294526722125 296.2407410149998Q936.7812038540366 293.7049507208533 942.5381331704772 291.397610002756Q948.2950624869179 289.09026928465875 954.0519918033585 288.10793610764705L954.0519918033585 288.10793610764705L954.0519918033585 301.1067169848484Q948.4778221477573 302.24896486509465 942.7208928313166 304.14509634630326Q936.9639635148759 306.0412278275119 932.0979875450272 308.1658088847697Q927.2548565327835 310.31323489963256 924.1250973409091 311.95807184718706L924.1250973409091 311.95807184718706L924.1250973409091 372.15453513616ZM995.5155898562945 373.95928678694895L995.5155898562945 373.95928678694895Q986.9487307544482 373.95928678694895 981.94568503897 371.33211666238276Q976.9197943658868 368.70494653781657 974.795213308629 362.1941336204135Q972.6477872937661 355.70616566061517 972.6477872937661 343.8724776212649L972.6477872937661 343.8724776212649L972.6477872937661 300.92395732400905L960.9740139576503 300.92395732400905L960.9740139576503 289.91268775843594L972.6477872937661 289.91268775843594L972.6477872937661 264.7375444778105L985.3038938068937 264.7375444778105L985.3038938068937 289.91268775843594L1011.1415408580621 289.91268775843594L1011.1415408580621 300.92395732400905L985.3038938068937 300.92395732400905L985.3038938068937 340.0802146588477Q985.3038938068937 348.8069884639284 986.0577774078562 353.6501194761721Q986.7888160512138 358.4932504884158 989.2560714725454 360.4807618000442Q991.7233268938771 362.4454281540676 997.0005121006145 362.4454281540676L997.0005121006145 362.4454281540676Q998.6453490481689 362.4454281540676 1001.2725191727351 362.28551345083315Q1003.8996892973013 362.1255987475987 1006.6182392522873 361.87430421394447Q1009.336789207273 361.62300968029035 1011.461370264531 361.4630949770559L1011.461370264531 361.4630949770559L1012.2837887383081 372.15453513616Q1009.976448020211 372.4743645426289 1006.8695337859414 372.8855737795176Q1003.7397745940668 373.29678301640615 1000.7013952326121 373.63945738048005Q997.6401709135523 373.95928678694895 995.5155898562945 373.95928678694895Z " fill="#fafafa" transform="matrix(0.864382117672879,0,0,0.864382117672879,0,11.72781513904927)"/></g></svg>